<mxfile host="app.diagrams.net" modified="2022-03-15T09:24:08.063Z" agent="5.0 (Windows NT 10.0; Win64; x64) AppleWebKit/537.36 (KHTML, like Gecko) Chrome/99.0.4844.51 Safari/537.36 Edg/99.0.1150.39" etag="dDVNwnDW5CFl0QDTE6Pg" version="17.1.2" type="github">
  <diagram id="insxoKi0sBr6bZBgxkeF" name="Page-1">
    <mxGraphModel dx="782" dy="738" grid="1" gridSize="10" guides="1" tooltips="1" connect="1" arrows="1" fold="1" page="1" pageScale="1" pageWidth="827" pageHeight="1169" math="0" shadow="0">
      <root>
        <mxCell id="0" />
        <mxCell id="1" parent="0" />
        <mxCell id="VuuhK-ssltcFLx3cPCy6-1" value="" style="rounded=0;whiteSpace=wrap;html=1;" vertex="1" parent="1">
          <mxGeometry x="340" y="350" width="120" height="60" as="geometry" />
        </mxCell>
        <mxCell id="VuuhK-ssltcFLx3cPCy6-2" value="" style="rounded=0;whiteSpace=wrap;html=1;" vertex="1" parent="1">
          <mxGeometry x="500" y="350" width="120" height="60" as="geometry" />
        </mxCell>
        <mxCell id="VuuhK-ssltcFLx3cPCy6-3" value="" style="rounded=0;whiteSpace=wrap;html=1;" vertex="1" parent="1">
          <mxGeometry x="180" y="350" width="120" height="60" as="geometry" />
        </mxCell>
        <mxCell id="VuuhK-ssltcFLx3cPCy6-4" value="" style="rounded=0;whiteSpace=wrap;html=1;" vertex="1" parent="1">
          <mxGeometry x="670" y="350" width="120" height="60" as="geometry" />
        </mxCell>
        <mxCell id="VuuhK-ssltcFLx3cPCy6-5" value="" style="endArrow=classic;html=1;rounded=0;entryX=0;entryY=1;entryDx=0;entryDy=0;" edge="1" parent="1" target="VuuhK-ssltcFLx3cPCy6-3">
          <mxGeometry width="50" height="50" relative="1" as="geometry">
            <mxPoint x="120" y="460" as="sourcePoint" />
            <mxPoint x="340" y="350" as="targetPoint" />
          </mxGeometry>
        </mxCell>
        <mxCell id="VuuhK-ssltcFLx3cPCy6-6" value="&lt;font style=&quot;font-size: 22px&quot;&gt;P&lt;/font&gt;" style="text;html=1;align=center;verticalAlign=middle;resizable=0;points=[];autosize=1;strokeColor=none;fillColor=none;" vertex="1" parent="1">
          <mxGeometry x="100" y="470" width="30" height="20" as="geometry" />
        </mxCell>
        <mxCell id="VuuhK-ssltcFLx3cPCy6-7" value="" style="rounded=0;whiteSpace=wrap;html=1;fontSize=22;" vertex="1" parent="1">
          <mxGeometry x="40" y="260" width="120" height="60" as="geometry" />
        </mxCell>
        <mxCell id="VuuhK-ssltcFLx3cPCy6-8" value="" style="endArrow=none;html=1;rounded=0;fontSize=22;entryX=0.5;entryY=0;entryDx=0;entryDy=0;exitX=0.5;exitY=1;exitDx=0;exitDy=0;" edge="1" parent="1" source="VuuhK-ssltcFLx3cPCy6-3" target="VuuhK-ssltcFLx3cPCy6-3">
          <mxGeometry width="50" height="50" relative="1" as="geometry">
            <mxPoint x="380" y="510" as="sourcePoint" />
            <mxPoint x="430" y="460" as="targetPoint" />
          </mxGeometry>
        </mxCell>
        <mxCell id="VuuhK-ssltcFLx3cPCy6-9" value="" style="endArrow=none;html=1;rounded=0;fontSize=22;exitX=0.5;exitY=1;exitDx=0;exitDy=0;entryX=0.5;entryY=0;entryDx=0;entryDy=0;" edge="1" parent="1" source="VuuhK-ssltcFLx3cPCy6-1" target="VuuhK-ssltcFLx3cPCy6-1">
          <mxGeometry width="50" height="50" relative="1" as="geometry">
            <mxPoint x="250" y="420" as="sourcePoint" />
            <mxPoint x="250" y="360" as="targetPoint" />
            <Array as="points">
              <mxPoint x="400" y="380" />
            </Array>
          </mxGeometry>
        </mxCell>
        <mxCell id="VuuhK-ssltcFLx3cPCy6-10" value="" style="endArrow=none;html=1;rounded=0;fontSize=22;entryX=0.5;entryY=0;entryDx=0;entryDy=0;exitX=0.5;exitY=1;exitDx=0;exitDy=0;" edge="1" parent="1" source="VuuhK-ssltcFLx3cPCy6-2" target="VuuhK-ssltcFLx3cPCy6-2">
          <mxGeometry width="50" height="50" relative="1" as="geometry">
            <mxPoint x="260" y="430" as="sourcePoint" />
            <mxPoint x="260" y="370" as="targetPoint" />
          </mxGeometry>
        </mxCell>
        <mxCell id="VuuhK-ssltcFLx3cPCy6-11" value="" style="endArrow=none;html=1;rounded=0;fontSize=22;entryX=0.5;entryY=0;entryDx=0;entryDy=0;exitX=0.5;exitY=1;exitDx=0;exitDy=0;" edge="1" parent="1" source="VuuhK-ssltcFLx3cPCy6-4" target="VuuhK-ssltcFLx3cPCy6-4">
          <mxGeometry width="50" height="50" relative="1" as="geometry">
            <mxPoint x="270" y="440" as="sourcePoint" />
            <mxPoint x="270" y="380" as="targetPoint" />
          </mxGeometry>
        </mxCell>
      </root>
    </mxGraphModel>
  </diagram>
</mxfile>
